<?xml version="1.0" encoding="UTF-8" standalone="no"?>
<svg width="125px" height="37px" viewBox="0 0 125 37" version="1.1" xmlns="http://www.w3.org/2000/svg" xmlns:xlink="http://www.w3.org/1999/xlink" xmlns:sketch="http://www.bohemiancoding.com/sketch/ns">
    <!-- Generator: Sketch 3.3.3 (12072) - http://www.bohemiancoding.com/sketch -->
    <title>logo_dark</title>
    <desc>Created with Sketch.</desc>
    <defs></defs>
    <g id="Home" stroke="none" stroke-width="1" fill="none" fill-rule="evenodd" sketch:type="MSPage">
        <g id="logo_dark" sketch:type="MSLayerGroup">
            <path d="M10.61775,14.8725 L8.1045,17.397 L16.19775,25.49025 L34.19775,7.49025 L31.6755,4.968 L16.19775,20.45475 L10.61775,14.8725 L10.61775,14.8725 Z M18,32.688 C10.08,32.688 3.6045,26.2125 3.6045,18.2925 C3.6045,10.3725 10.08,3.897 18,3.897 C19.44225,3.897 20.69775,4.0725 21.9645,4.4325 L24.83775,1.55025 C22.6755,0.828 20.33775,0.2925 18,0.2925 C8.1045,0.2925 0,8.397 0,18.2925 C0,28.188 8.1045,36.2925 18,36.2925 C27.8955,36.2925 36,28.188 36,18.2925 L32.3955,18.2925 C32.3955,26.2125 25.92,32.688 18,32.688 Z" id="Imported-Layers-Copy-3" fill="#1498B3" sketch:type="MSShapeGroup"></path>
            <path d="M43.581,14.251 C42.868,18.281 45.937,19.149 48.913,19.459 C51.393,19.707 52.54,19.986 52.292,21.443 C52.075,22.652 50.866,23.272 48.696,23.272 C47.022,23.272 45.906,22.9 45.472,21.567 C45.193,20.885 45.007,20.761 44.325,20.978 L42.837,21.412 C42.124,21.66 41.845,22.063 41.969,22.714 C42.496,25.132 44.604,26.465 48.262,26.465 C52.664,26.465 55.268,24.605 55.795,21.536 C56.477,17.785 53.873,16.669 50.401,16.297 C48.045,16.08 46.867,15.832 47.115,14.375 C47.332,13.259 48.324,12.701 50.339,12.701 C52.323,12.701 53.129,13.383 53.501,14.251 C53.811,14.902 53.997,14.995 54.741,14.716 L56.105,14.189 C56.818,13.879 57.004,13.507 56.787,12.794 C56.105,10.779 54.4,9.477 50.804,9.477 C46.526,9.477 44.108,11.275 43.581,14.251 L43.581,14.251 Z M73.186,9.942 L71.481,9.942 C70.768,9.942 70.489,10.159 70.365,10.872 L68.412,21.97 C67.575,22.187 66.459,22.404 65.157,22.404 C62.863,22.404 61.964,21.412 62.305,19.335 L63.793,10.872 C63.948,10.159 63.762,9.942 63.049,9.942 L61.344,9.942 C60.631,9.942 60.352,10.159 60.197,10.872 L58.771,19.18 C58.089,23.086 59.639,25.69 64.072,25.69 C65.622,25.69 66.831,25.473 67.823,25.256 L67.575,26.713 C67.172,28.914 65.87,30.061 63.7,30.061 C62.026,30.061 61.189,29.503 60.724,28.48 C60.383,27.829 60.042,27.736 59.236,28.108 L58.027,28.697 C57.283,29.069 57.066,29.565 57.407,30.247 C58.182,32.076 59.856,33.285 63.204,33.285 C68.071,33.285 70.489,30.588 71.202,26.527 L73.961,10.872 C74.085,10.159 73.899,9.942 73.186,9.942 L73.186,9.942 Z M78.735,10.531 C77.681,10.934 77.402,11.306 77.216,12.298 L74.984,25.039 C74.86,25.752 75.046,26 75.759,26 L77.464,26 C78.177,26 78.456,25.752 78.58,25.039 L80.595,13.476 C80.657,13.352 80.719,13.228 80.874,13.166 C81.711,12.949 82.734,12.763 83.943,12.763 C86.206,12.763 87.136,13.755 86.764,15.801 L85.152,25.039 C84.997,25.752 85.183,26 85.896,26 L87.601,26 C88.314,26 88.593,25.752 88.748,25.039 L90.329,15.987 C91.011,12.05 89.43,9.477 84.997,9.477 C82.021,9.477 80.068,10.035 78.735,10.531 L78.735,10.531 Z M93.305,15.553 L92.53,19.769 C91.817,23.675 93.584,26.465 98.017,26.465 C100.559,26.465 102.357,26.186 104.279,25.721 C105.023,25.504 105.302,25.287 105.426,24.543 L107.627,12.143 C107.813,11.151 107.689,10.903 106.79,10.438 C105.798,9.942 103.814,9.477 101.334,9.477 C96.591,9.477 94.018,11.306 93.305,15.553 L93.305,15.553 Z M103.535,13.104 C103.783,13.197 103.845,13.29 103.783,13.507 L102.14,22.776 C101.21,22.993 100.156,23.179 98.885,23.179 C96.684,23.179 95.723,22.094 96.064,20.048 L96.777,16.018 C97.211,13.662 98.544,12.763 101.024,12.763 C102.078,12.763 102.822,12.887 103.535,13.104 L103.535,13.104 Z M109.983,15.553 L109.363,19.025 C108.65,22.962 110.386,25.721 114.788,25.721 C116.276,25.721 117.485,25.411 118.446,25.163 L118.167,26.713 C117.764,28.914 116.462,30.061 114.292,30.061 C112.618,30.061 111.812,29.503 111.347,28.48 C110.975,27.829 110.634,27.736 109.828,28.108 L108.65,28.697 C107.875,29.069 107.658,29.565 107.999,30.247 C108.774,32.076 110.541,33.285 113.92,33.285 C118.787,33.285 121.05,30.743 121.763,26.682 L124.336,12.143 C124.522,11.151 124.398,10.903 123.499,10.438 C122.507,9.942 120.523,9.477 118.043,9.477 C113.3,9.477 110.727,11.306 109.983,15.553 L109.983,15.553 Z M120.306,13.104 C120.523,13.197 120.554,13.259 120.492,13.476 L119.004,22.001 C118.198,22.187 117.051,22.435 115.718,22.435 C113.331,22.435 112.556,21.35 112.897,19.366 L113.486,16.08 C113.889,13.817 115.253,12.763 117.733,12.763 C118.756,12.763 119.624,12.918 120.306,13.104 L120.306,13.104 Z" id="synag-copy" fill="#484848" sketch:type="MSShapeGroup"></path>
        </g>
    </g>
</svg>